<svg id="translate" xmlns="http://www.w3.org/2000/svg" viewBox="0 0 24 24" class="icon line" width="48" height="48"><path id="primary" d="M10,11a8.14,8.14,0,0,0,4,3" style="fill: none; stroke: rgb(255, 255, 255); stroke-linecap: round; stroke-linejoin: round; stroke-width: 2;"></path><path id="primary-2" data-name="primary" d="M10,14c4-1,4-6,4-6" style="fill: none; stroke: rgb(255, 255, 255); stroke-linecap: round; stroke-linejoin: round; stroke-width: 2;"></path><path id="primary-3" data-name="primary" d="M21,4V16a1,1,0,0,1-1,1H16l-4,4L8,17H4a1,1,0,0,1-1-1V4A1,1,0,0,1,4,3H20A1,1,0,0,1,21,4ZM8,8h8M12,7V8" style="fill: none; stroke: rgb(255, 255, 255); stroke-linecap: round; stroke-linejoin: round; stroke-width: 2;"></path></svg>